<svg xmlns="http://www.w3.org/2000/svg" viewBox="-1.5 -78 379.7 82.3">
  <path fill="currentColor" d="M27.30 0L2.50 0L2.50-3.60L13.70-5.60L16-5.60L27.30-3.60L27.30 0ZM19.40 0L10.40 0Q10.50-3.50 10.55-7Q10.60-10.50 10.65-14Q10.70-17.50 10.70-21L10.70-21L10.70-64.90L2.50-65.90L2.50-69.50L18.10-74L19.50-73.20L19.10-58.90L19.10-21Q19.10-17.50 19.15-14Q19.20-10.50 19.25-7Q19.30-3.50 19.40 0L19.40 0ZM56.50 0L33.30 0L33.30-3.60L44.20-5.60L46.50-5.60L56.50-3.60L56.50 0ZM49.70 0L40.60 0Q40.70-2.30 40.75-6.05Q40.80-9.80 40.85-13.85Q40.90-17.90 40.90-21L40.90-21L40.90-25.70Q40.90-29.80 40.85-32.55Q40.80-35.30 40.60-38.30L40.60-38.30L32.70-39.20L32.70-42.70L48.20-48.80L49.70-47.80L49.40-34.20L49.40-21Q49.40-17.90 49.45-13.85Q49.50-9.80 49.55-6.05Q49.60-2.30 49.70 0L49.70 0ZM44.60-58.90L44.60-58.90Q41.80-58.90 39.85-60.70Q37.90-62.50 37.90-65.30L37.90-65.30Q37.90-68.10 39.85-69.90Q41.80-71.70 44.60-71.70L44.60-71.70Q47.40-71.70 49.35-69.90Q51.30-68.10 51.30-65.30L51.30-65.30Q51.30-62.50 49.35-60.70Q47.40-58.90 44.60-58.90ZM86.80 0L63.60 0L63.60-3.60L74.50-5.60L76.80-5.60L86.80-3.60L86.80 0ZM80 0L70.90 0Q71-2.30 71.05-6.05Q71.10-9.80 71.15-13.85Q71.20-17.90 71.20-21L71.20-21L71.20-25.80Q71.20-28.60 71.15-30.65Q71.10-32.70 71.05-34.50Q71-36.30 70.90-38.30L70.90-38.30L63-39.20L63-42.70L77-48.80L78.50-47.80L79.70-36.20L79.70-36.10L79.70-21Q79.70-17.90 79.75-13.85Q79.80-9.80 79.85-6.05Q79.90-2.30 80 0L80 0ZM117.20 0L94 0L94-3.60L104.90-5.60L107.20-5.60L117.20-3.60L117.20 0ZM110.30 0L101.30 0Q101.40-2.30 101.45-6Q101.50-9.70 101.55-13.75Q101.60-17.80 101.60-21L101.60-21L101.60-29.50Q101.60-36.40 99.65-39Q97.70-41.60 93.30-41.60L93.30-41.60Q90.90-41.60 88.60-40.90Q86.30-40.20 83.90-38.70Q81.50-37.20 78.70-34.70L78.70-34.70L77.40-38.50L78.20-38.50Q80.70-41.50 83.85-43.80Q87-46.10 90.45-47.45Q93.90-48.80 97.20-48.80L97.20-48.80Q103.70-48.80 106.85-44.45Q110-40.10 110-30.30L110-30.30L110-21Q110-17.80 110.05-13.75Q110.10-9.70 110.15-6Q110.20-2.30 110.30 0L110.30 0ZM147.50 0L122.70 0L122.70-3.60L133.90-5.60L136.20-5.60L147.50-3.60L147.50 0ZM139.60 0L130.60 0Q130.70-2.60 130.75-5.20Q130.80-7.80 130.85-10.45Q130.90-13.10 130.90-15.75Q130.90-18.40 130.90-21L130.90-21L130.90-64.90L122.70-65.90L122.70-69.50L138.30-74L139.70-73.20L139.30-58.90L139.30-21Q139.30-18.40 139.30-15.75Q139.30-13.10 139.35-10.45Q139.40-7.80 139.45-5.20Q139.50-2.60 139.60 0L139.60 0ZM168.10-47.50L135.10-13.70L135.10-19.90L135.40-19.90L148.60-33.70L161.90-47.50L168.10-47.50ZM174.90 0L161.30 0L144.80-26.60L150.80-32.60L168.30-4.80L174.90-3.60L174.90 0ZM158.20-41.30L149-43.60L149-47.50L172.30-47.50L172.30-43.60L161.20-41.90L158.20-41.30ZM204.30 0L178.50 0L178.50-3.60L189.70-5.60L192.10-5.60L204.30-3.60L204.30 0ZM195.40 0L186.30 0Q186.40-3.50 186.45-7Q186.50-10.50 186.55-14Q186.60-17.50 186.60-21L186.60-21L186.60-42.20L178.30-42.20L178.30-46.60L189.70-48.10L186.60-46.50L186.70-47.10Q187.20-52.60 188-56.70Q188.80-60.80 190.40-64Q192-67.20 194.90-69.90L194.90-69.90Q197.90-72.80 201.20-73.90Q204.50-75 207.90-75L207.90-75Q211.40-75 214.10-73.75Q216.80-72.50 217.50-69.60L217.50-69.60Q217.40-67.70 215.80-66.35Q214.20-65 211.40-65L211.40-65Q209.50-65 207.80-65.80Q206.10-66.60 204.20-68.10L204.20-68.10L199.50-71.80L199.50-72.70L206.70-72.70L206.70-72.10Q203.90-71.70 202.05-70.60Q200.20-69.50 198.50-66.90L198.50-66.90Q197.50-65.30 196.70-63.30Q195.90-61.30 195.45-58.60Q195-55.90 194.90-52.20Q194.80-48.50 195.10-43.50L195.10-43.50L195.10-21Q195.10-17.50 195.15-14Q195.20-10.50 195.25-7Q195.30-3.50 195.40 0L195.40 0ZM208.70-42.20L190.80-42.20L190.80-47.50L208.70-47.50L208.70-42.20ZM237.70 1.30L237.70 1.30Q231.90 1.30 226.65-1.45Q221.40-4.20 218.10-9.75Q214.80-15.30 214.80-23.50L214.80-23.50Q214.80-31.80 218.10-37.45Q221.40-43.10 226.65-45.95Q231.90-48.80 237.70-48.80L237.70-48.80Q243.50-48.80 248.75-45.95Q254-43.10 257.35-37.45Q260.70-31.80 260.70-23.50L260.70-23.50Q260.70-15.30 257.35-9.75Q254-4.20 248.75-1.45Q243.50 1.30 237.70 1.30ZM237.70-3.20L237.70-3.20Q242-3.20 245-5.50Q248-7.80 249.60-12.30Q251.20-16.80 251.20-23.50L251.20-23.50Q251.20-30.30 249.60-34.90Q248-39.50 245-41.85Q242-44.20 237.70-44.20L237.70-44.20Q233.40-44.20 230.40-41.85Q227.40-39.50 225.85-34.90Q224.30-30.30 224.30-23.50L224.30-23.50Q224.30-16.80 225.85-12.30Q227.40-7.80 230.40-5.50Q233.40-3.20 237.70-3.20ZM292.50 0L267.70 0L267.70-3.60L278.90-5.60L281.20-5.60L292.50-3.60L292.50 0ZM284.60 0L275.60 0Q275.70-3.50 275.75-7Q275.80-10.50 275.85-14Q275.90-17.50 275.90-21L275.90-21L275.90-64.90L267.70-65.90L267.70-69.50L283.30-74L284.70-73.20L284.30-58.90L284.30-21Q284.30-17.50 284.35-14Q284.40-10.50 284.45-7Q284.50-3.50 284.60 0L284.60 0ZM321.70 0L298.50 0L298.50-3.60L309.40-5.60L311.70-5.60L321.70-3.60L321.70 0ZM314.90 0L305.80 0Q305.90-2.30 305.95-6.05Q306.00-9.80 306.05-13.85Q306.10-17.90 306.10-21L306.10-21L306.10-25.70Q306.10-29.80 306.05-32.55Q306.00-35.30 305.80-38.30L305.80-38.30L297.90-39.20L297.90-42.70L313.40-48.80L314.90-47.80L314.60-34.20L314.60-21Q314.60-17.90 314.65-13.85Q314.70-9.80 314.75-6.05Q314.80-2.30 314.90 0L314.90 0ZM309.80-58.90L309.80-58.90Q307.00-58.90 305.05-60.70Q303.10-62.50 303.10-65.30L303.10-65.30Q303.10-68.10 305.05-69.90Q307.00-71.70 309.80-71.70L309.80-71.70Q312.60-71.70 314.55-69.90Q316.50-68.10 316.50-65.30L316.50-65.30Q316.50-62.50 314.55-60.70Q312.60-58.90 309.80-58.90ZM352.20 1.30L352.20 1.30Q346.40 1.30 341.15-1.45Q335.90-4.20 332.60-9.75Q329.30-15.30 329.30-23.50L329.30-23.50Q329.30-31.80 332.60-37.45Q335.90-43.10 341.15-45.95Q346.40-48.80 352.20-48.80L352.20-48.80Q358.00-48.80 363.25-45.95Q368.50-43.10 371.85-37.45Q375.20-31.80 375.20-23.50L375.20-23.50Q375.20-15.30 371.85-9.75Q368.50-4.20 363.25-1.45Q358.00 1.30 352.20 1.30ZM352.20-3.20L352.20-3.20Q356.50-3.20 359.50-5.50Q362.50-7.80 364.10-12.30Q365.70-16.80 365.70-23.50L365.70-23.50Q365.70-30.30 364.10-34.90Q362.50-39.50 359.50-41.85Q356.50-44.20 352.20-44.20L352.20-44.20Q347.90-44.20 344.90-41.85Q341.90-39.50 340.35-34.90Q338.80-30.30 338.80-23.50L338.80-23.50Q338.80-16.80 340.35-12.30Q341.90-7.80 344.90-5.50Q347.90-3.20 352.20-3.20Z" />
</svg>
